<svg width="730" height="731" viewBox="0 0 730 731" fill="none" xmlns="http://www.w3.org/2000/svg">
<path d="M132.598 0.0245007C134.68 0.0205992 136.762 0.014952 138.845 0.00772976C144.518 -0.00692116 150.19 0.00309433 155.863 0.0174665C162 0.0286316 168.138 0.0166154 174.275 0.00762444C185.585 -0.00547071 196.896 -0.000555661 208.207 0.0136997C218.658 0.0267856 229.108 0.0319409 239.559 0.0293816C240.602 0.0291409 240.602 0.0291409 241.665 0.0288955C244.487 0.0282318 247.309 0.0275294 250.131 0.0267701C276.564 0.0197567 302.997 0.0352018 329.431 0.0613936C352.883 0.0845087 376.336 0.0898947 399.788 0.0796612C405.795 0.0770589 411.803 0.0744738 417.81 0.0720633C418.55 0.0717658 419.289 0.0714684 420.051 0.0711619C439.686 0.0635368 459.32 0.0699683 478.954 0.0807593C481.068 0.081907 483.182 0.0830502 485.296 0.0841861C486.698 0.0849413 488.101 0.085707 489.503 0.0864831C499.945 0.0921269 510.386 0.0908213 520.828 0.0862549C532.707 0.0811334 544.586 0.0873577 556.465 0.107149C562.521 0.116991 568.577 0.122159 574.632 0.114257C580.184 0.10716 585.736 0.114098 591.288 0.13186C593.288 0.135879 595.288 0.134949 597.288 0.128341C612.798 0.0815087 627.724 1.24775 642.414 6.65071C643.241 6.94856 644.067 7.24641 644.919 7.55329C663.345 14.4306 678.263 25.0517 692.414 38.5257C693.134 39.1818 693.855 39.838 694.597 40.514C708.169 53.2662 717.872 71.175 723.851 88.6507C724.074 89.293 724.297 89.9353 724.526 90.597C729.185 105.292 729.85 120.059 729.788 135.337C729.791 137.391 729.795 139.445 729.8 141.499C729.811 147.098 729.803 152.698 729.791 158.297C729.782 164.353 729.791 170.409 729.797 176.465C729.806 187.627 729.801 198.789 729.79 209.951C729.779 220.263 729.775 230.576 729.776 240.889C729.776 241.918 729.776 241.918 729.776 242.967C729.777 245.751 729.777 248.534 729.778 251.318C729.782 277.397 729.769 303.477 729.748 329.556C729.73 352.7 729.724 375.843 729.729 398.987C729.73 400.473 729.73 401.96 729.73 403.446C729.731 404.548 729.731 404.548 729.731 405.673C729.732 409.373 729.733 413.073 729.733 416.772C729.734 417.502 729.734 418.232 729.734 418.984C729.738 438.355 729.732 457.726 729.724 477.096C729.723 479.182 729.722 481.267 729.721 483.353C729.721 484.736 729.72 486.119 729.719 487.503C729.715 497.126 729.715 506.749 729.716 516.372C729.719 528.775 729.715 541.178 729.699 553.581C729.692 559.558 729.688 565.534 729.693 571.511C729.697 576.988 729.691 582.465 729.679 587.943C729.676 589.918 729.676 591.893 729.681 593.867C729.745 627.41 721.409 658.577 699.414 684.526C698.989 685.034 698.564 685.543 698.126 686.067C681.992 705.217 660.3 718.505 636.289 725.338C635.61 725.533 634.931 725.728 634.231 725.929C620.519 729.589 606.922 729.817 592.845 729.793C590.781 729.797 588.716 729.801 586.652 729.807C581.01 729.819 575.368 729.819 569.726 729.816C563.629 729.816 557.532 729.827 551.435 729.837C539.501 729.853 527.568 729.859 515.634 729.86C505.93 729.861 496.225 729.865 486.521 729.871C483.722 729.873 480.923 729.875 478.124 729.877C477.081 729.877 477.081 729.877 476.016 729.878C456.455 729.89 436.894 729.898 417.333 729.897C416.228 729.897 416.228 729.897 415.101 729.897C411.368 729.897 407.634 729.897 403.901 729.897C402.789 729.896 402.789 729.896 401.654 729.896C400.155 729.896 398.656 729.896 397.156 729.896C373.839 729.895 350.521 729.91 327.204 729.937C300.973 729.968 274.742 729.985 248.512 729.983C245.711 729.983 242.91 729.983 240.109 729.983C239.42 729.983 238.73 729.983 238.02 729.983C226.958 729.983 215.895 729.996 204.833 730.013C193.702 730.03 182.571 730.032 171.44 730.019C165.418 730.012 159.396 730.012 153.375 730.029C147.85 730.045 142.325 730.042 136.801 730.025C134.814 730.022 132.828 730.025 130.841 730.037C114.419 730.123 98.0785 728.394 82.6638 722.338C81.5125 721.899 81.5125 721.899 80.3381 721.451C62.1074 714.239 46.8838 702.687 33.4138 688.526C32.4682 687.59 32.4682 687.59 31.5036 686.635C20.5549 675.281 13.0038 661.172 7.41376 646.526C7.03735 645.619 6.66095 644.713 6.27313 643.78C0.38566 628.995 -0.0238627 614.053 0.0328079 598.386C0.0293451 596.284 0.0245827 594.182 0.0186325 592.08C0.00617915 586.343 0.0122533 580.607 0.0215775 574.871C0.0283909 568.669 0.0178828 562.467 0.00964509 556.265C-0.00290169 544.831 -0.00184579 533.398 0.00637971 521.964C0.0139422 511.399 0.0158927 500.835 0.0123154 490.27C0.0120862 489.568 0.0118496 488.866 0.0116135 488.142C0.0106794 485.291 0.00973481 482.44 0.00874482 479.589C-0.000421235 452.874 0.00786945 426.159 0.0240341 399.444C0.0382697 375.736 0.0369902 352.029 0.0226456 328.322C0.00656318 301.654 0.000216867 274.986 0.00947725 248.318C0.0104393 245.473 0.0113868 242.627 0.0123154 239.781C0.0125526 239.081 0.0127881 238.38 0.0130325 237.658C0.0164373 227.103 0.0124625 216.548 0.00486909 205.993C-0.00372676 193.985 -0.00123873 181.977 0.014711 169.969C0.0225762 163.847 0.0257155 157.724 0.0157639 151.602C0.00678016 145.99 0.0118099 140.378 0.0276962 134.766C0.0310285 132.743 0.0293822 130.721 0.0220657 128.698C-0.0284663 113.559 1.04323 99.2346 6.60126 84.9632C6.90169 84.1737 7.20212 83.3841 7.51166 82.5706C13.9459 66.1367 23.3015 52.3505 35.4138 39.5257C36.5178 38.3075 36.5178 38.3075 37.6442 37.0648C62.2603 10.923 97.585 -0.159255 132.598 0.0245007Z" fill="#6366f1"/>
<path d="M447.414 142.526C450.126 144.749 452.643 147.152 455.164 149.588C455.868 150.259 456.573 150.929 457.299 151.62C462.031 156.139 466.665 160.747 471.262 165.405C473.833 167.939 476.541 170.271 479.285 172.616C482.434 175.441 485.376 178.466 488.345 181.476C490.972 184.125 493.641 186.665 496.476 189.088C511.272 201.766 511.272 201.766 512.039 209.588C511.965 215.308 508.893 218.153 505.027 222.073C501.807 225.096 498.544 228.059 495.223 230.971C491.795 234.088 488.545 237.356 485.289 240.651C481.201 244.783 477.142 248.821 472.605 252.467C470.645 254.308 469.102 256.137 467.441 258.241C462.11 264.682 457.827 269.629 449.176 270.682C443.973 270.986 438.806 270.898 433.606 270.559C431.368 270.357 431.368 270.357 429.414 271.526C430.926 271.531 430.926 271.531 432.468 271.537C442.057 271.574 451.646 271.632 461.234 271.71C466.162 271.749 471.089 271.781 476.016 271.797C480.789 271.812 485.561 271.847 490.333 271.894C492.136 271.909 493.94 271.917 495.743 271.918C524.892 271.945 555.348 279.466 577.414 299.526C578.669 300.605 578.669 300.605 579.949 301.705C599.315 318.589 612.436 340.296 617.414 365.526C617.638 366.612 617.863 367.699 618.094 368.819C623.456 398.383 615.546 428.521 599.101 453.276C584.307 473.771 564.843 488.35 541.414 497.526C540.408 497.927 539.403 498.328 538.367 498.741C522.059 504.71 505.212 504.956 488.074 504.866C485.785 504.866 483.497 504.866 481.209 504.868C475.053 504.869 468.897 504.851 462.741 504.83C456.287 504.811 449.833 504.809 443.379 504.806C432.564 504.798 421.75 504.779 410.935 504.752C399.805 504.725 388.676 504.703 377.546 504.691C376.858 504.69 376.17 504.689 375.461 504.688C372.007 504.684 368.554 504.681 365.1 504.677C336.538 504.646 307.976 504.593 279.414 504.526C280.186 505.298 280.959 506.07 281.754 506.865C284.393 509.504 287.023 512.151 289.652 514.799C291.161 516.315 292.669 517.83 294.178 519.345C295.206 520.378 296.233 521.411 297.258 522.446C302.641 527.872 308.022 533.237 313.879 538.159C317.245 541.156 318.305 543.526 318.789 547.963C318.239 553.185 316.772 556.269 312.914 559.838C308.701 562.682 304.397 563.463 299.414 562.526C296.423 560.883 293.97 558.772 291.414 556.526C290.735 555.977 290.055 555.428 289.355 554.862C285.771 551.933 285.771 551.933 284.414 550.526C284.414 549.866 284.414 549.206 284.414 548.526C283.83 548.264 283.246 548.002 282.644 547.733C280.287 546.457 278.657 545.069 276.726 543.217C276.034 542.558 275.342 541.899 274.628 541.221C273.898 540.517 273.167 539.813 272.414 539.088C270.875 537.623 269.336 536.158 267.797 534.694C267.046 533.978 266.294 533.261 265.52 532.523C262.806 529.949 260.054 527.421 257.289 524.901C252.705 520.715 248.145 516.506 243.601 512.276C242.991 511.709 242.38 511.142 241.751 510.559C240.562 509.45 239.379 508.336 238.201 507.216C236.963 506.045 235.708 504.893 234.439 503.756C229.658 499.321 229.658 499.321 228.484 495.498C228.502 494.538 228.52 493.578 228.539 492.588C228.521 491.631 228.503 490.673 228.484 489.686C230.767 481.926 239.085 475.727 244.719 470.159C245.483 469.398 246.248 468.637 247.036 467.853C249.451 465.45 251.869 463.05 254.289 460.651C257.497 457.469 260.703 454.283 263.906 451.096C264.645 450.366 265.383 449.636 266.144 448.884C266.822 448.209 267.5 447.534 268.199 446.839C268.797 446.246 269.395 445.652 270.012 445.041C271.513 443.56 271.513 443.56 272.414 441.526C271.24 441.536 270.066 441.547 268.857 441.558C264.441 441.594 260.026 441.617 255.611 441.636C253.711 441.646 251.811 441.659 249.912 441.677C239.226 441.772 228.931 441.699 218.414 439.526C217.677 439.385 216.941 439.244 216.182 439.099C186.222 433.071 159.304 414.459 141.543 389.764C132.519 376.038 126.703 362.385 122.414 346.526C122.087 345.412 122.087 345.412 121.754 344.276C113.928 316.453 120.714 284.233 134.293 259.503C151.063 229.922 177.982 209.389 210.414 199.526C220.857 196.655 231.236 195.369 242.032 195.406C243.439 195.404 243.439 195.404 244.874 195.403C248 195.401 251.126 195.407 254.252 195.412C256.499 195.413 258.747 195.412 260.994 195.412C267.084 195.412 273.175 195.417 279.265 195.424C285.634 195.431 292.003 195.431 298.371 195.432C309.057 195.435 319.743 195.441 330.43 195.45C341.433 195.46 352.437 195.467 363.441 195.471C364.12 195.471 364.799 195.471 365.499 195.472C368.905 195.473 372.311 195.474 375.717 195.475C403.949 195.486 432.182 195.504 460.414 195.526C459.621 194.733 458.828 193.94 458.012 193.123C448.479 183.591 438.946 174.058 429.414 164.526C428.653 163.785 427.892 163.045 427.108 162.282C423.655 158.702 424.022 155.066 424.066 150.295C424.617 145.905 426.092 144.405 429.414 141.526C435.628 137.928 441.478 139.028 447.414 142.526Z" fill="#6366f1"/>
<path d="M447.414 142.526C450.126 144.749 452.643 147.152 455.164 149.588C455.868 150.259 456.573 150.929 457.299 151.62C462.031 156.139 466.665 160.747 471.262 165.405C473.833 167.939 476.541 170.271 479.285 172.616C482.434 175.441 485.376 178.466 488.345 181.476C490.972 184.125 493.641 186.665 496.476 189.088C511.272 201.766 511.272 201.766 512.039 209.588C511.965 215.308 508.893 218.153 505.027 222.073C501.807 225.096 498.544 228.059 495.223 230.971C491.795 234.088 488.545 237.356 485.289 240.651C481.202 244.781 477.145 248.82 472.609 252.463C470.638 254.316 469.08 256.161 467.406 258.276C462.193 264.567 457.932 269.667 449.433 270.565C434.664 271.026 434.664 271.026 429.414 267.526C428.797 265.573 428.797 265.573 428.539 263.276C428.438 262.528 428.338 261.78 428.234 261.01C428.568 256.389 430.632 253.332 433.805 250.061C434.748 249.245 435.692 248.429 436.664 247.588C441.812 243.041 446.746 238.321 451.601 233.463C452.591 232.48 452.591 232.48 453.6 231.477C454.213 230.863 454.826 230.249 455.457 229.616C456.004 229.068 456.55 228.52 457.114 227.955C458.521 226.538 458.521 226.538 459.414 224.526C430.386 224.562 401.357 224.619 372.329 224.704C368.895 224.714 365.46 224.724 362.026 224.733C361.001 224.736 361.001 224.736 359.955 224.739C348.914 224.77 337.874 224.787 326.833 224.799C315.488 224.811 304.142 224.839 292.797 224.88C286.431 224.903 280.066 224.919 273.701 224.918C267.699 224.917 261.698 224.935 255.696 224.967C253.503 224.975 251.31 224.977 249.118 224.972C220.111 224.907 196.043 233.47 174.726 253.713C157.681 271.347 148.743 294.669 149.009 319.016C149.669 342.011 157.358 363.02 172.414 380.526C173.196 381.509 173.979 382.493 174.785 383.506C188.707 400.192 212.473 409.946 233.414 412.526C238.654 412.923 243.9 412.908 249.152 412.875C251.646 412.861 254.14 412.868 256.634 412.88C263.712 412.911 270.789 412.906 277.867 412.886C282.23 412.875 286.592 412.888 290.955 412.916C292.604 412.921 294.253 412.917 295.903 412.904C310.333 412.784 310.333 412.784 314.849 415.876C319.351 420.527 320.334 423.712 320.242 430.069C318.501 437.339 312.564 442.38 307.414 447.526C306.418 448.539 305.422 449.552 304.426 450.565C302.726 452.272 301.012 453.964 299.277 455.635C297.35 457.396 297.35 457.396 296.414 459.526C295.754 459.526 295.094 459.526 294.414 459.526C294.414 460.186 294.414 460.846 294.414 461.526C292.789 463.255 291.126 464.885 289.414 466.526C287.847 468.084 286.284 469.645 284.723 471.209C283.915 472.018 283.107 472.827 282.275 473.66C281.661 474.276 281.047 474.892 280.414 475.526C309.391 475.64 338.368 475.729 367.346 475.781C370.776 475.787 374.206 475.794 377.637 475.8C378.661 475.802 378.661 475.802 379.706 475.804C390.725 475.826 401.744 475.866 412.763 475.912C424.092 475.959 435.42 475.986 446.749 475.996C453.103 476.003 459.456 476.018 465.81 476.054C471.804 476.089 477.798 476.099 483.793 476.091C485.979 476.093 488.166 476.103 490.353 476.122C517.246 476.348 542.91 469.455 562.664 450.276C563.571 449.368 564.479 448.461 565.414 447.526C566.156 446.783 566.899 446.041 567.664 445.276C582.32 429.704 589.86 408.418 589.726 387.151C589.722 386.232 589.718 385.313 589.714 384.366C589.598 377.376 588.654 371.167 586.414 364.526C586.014 363.093 586.014 363.093 585.605 361.631C581.285 346.981 573.172 336.064 562.414 325.526C561.689 324.814 560.965 324.103 560.219 323.37C555.423 318.943 550.114 315.669 544.414 312.526C543.668 312.094 542.921 311.662 542.152 311.217C536.919 308.365 531.539 306.482 525.851 304.776C525.155 304.565 524.459 304.354 523.742 304.137C515.278 301.716 506.876 301.378 498.116 301.408C496.617 301.407 496.617 301.407 495.088 301.406C491.76 301.405 488.433 301.41 485.105 301.416C482.711 301.416 480.317 301.416 477.923 301.415C472.778 301.414 467.633 301.415 462.488 301.418C454.353 301.422 446.218 301.413 438.083 301.4C436.695 301.398 435.308 301.396 433.92 301.394C431.111 301.39 428.302 301.386 425.493 301.382C418.286 301.371 411.079 301.361 403.871 301.353C403.149 301.352 402.426 301.351 401.681 301.35C389.956 301.337 378.231 301.342 366.506 301.353C354.454 301.363 342.402 301.351 330.351 301.319C323.589 301.301 316.828 301.294 310.067 301.315C303.712 301.333 297.358 301.323 291.003 301.293C288.671 301.286 286.339 301.29 284.007 301.305C280.823 301.324 277.642 301.306 274.458 301.279C273.535 301.293 272.613 301.307 271.662 301.322C265.932 301.223 262.88 300.049 258.69 296.105C255.241 291.836 255.876 285.696 256.414 280.526C258.826 276.072 261.782 274.391 266.414 272.526C269.737 272.097 273.03 272.116 276.378 272.138C277.378 272.133 278.377 272.127 279.407 272.122C282.755 272.107 286.103 272.115 289.452 272.122C291.853 272.116 294.255 272.109 296.657 272.101C302.507 272.085 308.356 272.083 314.205 272.088C318.968 272.092 323.731 272.091 328.493 272.085C329.172 272.085 329.851 272.084 330.551 272.083C331.93 272.082 333.31 272.08 334.689 272.079C347.63 272.065 360.57 272.07 373.51 272.082C385.307 272.092 397.104 272.079 408.902 272.055C421.043 272.03 433.184 272.021 445.325 272.027C452.13 272.031 458.935 272.029 465.739 272.011C472.153 271.996 478.567 272 484.98 272.018C487.32 272.022 489.659 272.019 491.999 272.009C522.616 271.881 554.05 278.286 577.414 299.526C578.669 300.605 578.669 300.605 579.949 301.705C599.315 318.589 612.436 340.296 617.414 365.526C617.638 366.612 617.863 367.699 618.094 368.819C623.456 398.383 615.546 428.521 599.101 453.276C584.307 473.771 564.843 488.35 541.414 497.526C540.408 497.927 539.403 498.328 538.367 498.741C522.059 504.71 505.212 504.956 488.074 504.866C485.785 504.866 483.497 504.866 481.209 504.868C475.053 504.869 468.897 504.851 462.741 504.83C456.287 504.811 449.833 504.809 443.379 504.806C432.564 504.798 421.75 504.779 410.935 504.752C399.805 504.725 388.676 504.703 377.546 504.691C376.858 504.69 376.17 504.689 375.461 504.688C372.007 504.684 368.554 504.681 365.1 504.677C336.538 504.646 307.976 504.593 279.414 504.526C280.186 505.298 280.959 506.07 281.754 506.865C284.393 509.504 287.023 512.151 289.652 514.799C291.161 516.315 292.669 517.83 294.178 519.345C295.206 520.378 296.233 521.411 297.258 522.446C302.641 527.872 308.022 533.237 313.879 538.159C317.245 541.156 318.305 543.526 318.789 547.963C318.239 553.185 316.772 556.269 312.914 559.838C308.701 562.682 304.397 563.463 299.414 562.526C296.423 560.883 293.97 558.772 291.414 556.526C290.735 555.977 290.055 555.428 289.355 554.862C285.771 551.933 285.771 551.933 284.414 550.526C284.414 549.866 284.414 549.206 284.414 548.526C283.83 548.264 283.246 548.002 282.644 547.733C280.287 546.457 278.657 545.069 276.726 543.217C276.034 542.558 275.342 541.899 274.628 541.221C273.898 540.517 273.167 539.813 272.414 539.088C270.875 537.623 269.336 536.158 267.797 534.694C267.046 533.978 266.294 533.261 265.52 532.523C262.806 529.949 260.054 527.421 257.289 524.901C252.705 520.715 248.145 516.506 243.601 512.276C242.991 511.709 242.38 511.142 241.751 510.559C240.562 509.45 239.379 508.336 238.201 507.216C236.963 506.045 235.708 504.893 234.439 503.756C229.658 499.321 229.658 499.321 228.484 495.498C228.502 494.538 228.52 493.578 228.539 492.588C228.521 491.631 228.503 490.673 228.484 489.686C230.767 481.926 239.085 475.727 244.719 470.159C245.483 469.398 246.248 468.637 247.036 467.853C249.451 465.45 251.869 463.05 254.289 460.651C257.497 457.469 260.703 454.283 263.906 451.096C264.645 450.366 265.383 449.636 266.144 448.884C266.822 448.209 267.5 447.534 268.199 446.839C268.797 446.246 269.395 445.652 270.012 445.041C271.513 443.56 271.513 443.56 272.414 441.526C271.24 441.536 270.066 441.547 268.857 441.558C264.441 441.594 260.026 441.617 255.611 441.636C253.711 441.646 251.811 441.659 249.912 441.677C239.226 441.772 228.931 441.699 218.414 439.526C217.677 439.385 216.941 439.244 216.182 439.099C186.222 433.071 159.304 414.459 141.543 389.764C132.519 376.038 126.703 362.385 122.414 346.526C122.087 345.412 122.087 345.412 121.754 344.276C113.928 316.453 120.714 284.233 134.293 259.503C151.063 229.922 177.982 209.389 210.414 199.526C220.857 196.655 231.236 195.369 242.032 195.406C243.439 195.404 243.439 195.404 244.874 195.403C248 195.401 251.126 195.407 254.252 195.412C256.499 195.413 258.747 195.412 260.994 195.412C267.084 195.412 273.175 195.417 279.265 195.424C285.634 195.431 292.003 195.431 298.371 195.432C309.057 195.435 319.743 195.441 330.43 195.45C341.433 195.46 352.437 195.467 363.441 195.471C364.12 195.471 364.799 195.471 365.499 195.472C368.905 195.473 372.311 195.474 375.717 195.475C403.949 195.486 432.182 195.504 460.414 195.526C459.621 194.733 458.828 193.94 458.012 193.123C448.479 183.591 438.946 174.058 429.414 164.526C428.653 163.785 427.892 163.045 427.108 162.282C423.655 158.702 424.022 155.066 424.066 150.295C424.617 145.905 426.092 144.405 429.414 141.526C435.628 137.928 441.478 139.028 447.414 142.526Z" fill="#FAFDFC"/>
<path d="M273.32 320.258C274.122 320.254 274.925 320.249 275.751 320.244C278.443 320.232 281.134 320.233 283.825 320.235C285.754 320.229 287.682 320.222 289.611 320.215C294.853 320.197 300.094 320.192 305.336 320.191C309.712 320.189 314.089 320.182 318.465 320.175C328.791 320.158 339.117 320.154 349.444 320.155C360.093 320.156 370.743 320.135 381.392 320.104C390.536 320.077 399.68 320.067 408.825 320.068C414.285 320.068 419.746 320.063 425.207 320.042C430.345 320.022 435.483 320.022 440.621 320.037C442.505 320.039 444.388 320.034 446.271 320.022C448.848 320.006 451.423 320.016 454 320.031C454.741 320.021 455.481 320.011 456.244 320C461.696 320.072 465.823 321.578 470.414 324.526C473.482 327.689 473.683 330.707 473.914 334.963C473.809 338.671 473.533 341.134 471.227 344.088C466.228 348.42 461.823 348.82 455.381 348.793C454.175 348.8 454.175 348.8 452.945 348.807C450.255 348.819 447.564 348.818 444.874 348.816C442.943 348.822 441.013 348.829 439.083 348.837C433.841 348.854 428.599 348.859 423.358 348.86C418.981 348.862 414.605 348.869 410.229 348.877C399.904 348.893 389.579 348.898 379.254 348.896C368.604 348.895 357.954 348.916 347.304 348.948C338.159 348.974 329.014 348.985 319.869 348.983C314.408 348.983 308.946 348.989 303.485 349.01C298.348 349.029 293.212 349.029 288.076 349.015C286.192 349.013 284.308 349.017 282.424 349.029C279.849 349.045 277.276 349.036 274.701 349.02C273.958 349.03 273.216 349.041 272.451 349.051C266.924 348.978 263.86 347.582 259.414 344.526C256.264 340.257 255.836 336.106 255.992 330.932C256.699 326.901 258.405 325.261 261.414 322.526C265.128 320.003 268.991 320.24 273.32 320.258Z" fill="#FAFDFC"/>
<path d="M276.769 367.121C278.331 367.111 278.331 367.111 279.924 367.1C283.365 367.082 286.805 367.086 290.246 367.092C292.641 367.087 295.036 367.082 297.431 367.076C302.452 367.067 307.473 367.069 312.494 367.079C318.92 367.091 325.346 367.07 331.772 367.041C336.719 367.023 341.667 367.023 346.614 367.029C348.983 367.029 351.351 367.023 353.72 367.011C357.037 366.996 360.354 367.006 363.671 367.023C364.644 367.014 365.618 367.004 366.62 366.994C373.62 367.07 379.221 368.472 384.383 373.408C386.543 377.844 386.104 382.744 385.414 387.525C383.496 391.513 380.469 393.864 376.414 395.525C374.205 395.782 374.205 395.782 371.759 395.793C370.829 395.801 369.898 395.81 368.939 395.818C367.418 395.817 367.418 395.817 365.866 395.816C364.792 395.822 363.719 395.829 362.612 395.836C359.059 395.855 355.506 395.859 351.953 395.861C349.485 395.868 347.016 395.874 344.547 395.881C339.371 395.893 334.194 395.897 329.018 395.896C322.384 395.896 315.751 395.923 309.117 395.957C304.018 395.98 298.919 395.984 293.82 395.983C291.374 395.985 288.929 395.994 286.483 396.009C283.062 396.029 279.642 396.023 276.221 396.011C275.211 396.022 274.201 396.033 273.16 396.045C267.244 395.992 263.951 395.407 259.414 391.525C256.318 388.37 255.958 385.957 255.914 381.588C256.021 377.399 256.116 375.943 258.602 372.463C259.53 371.823 260.458 371.184 261.414 370.525C262.084 369.999 262.753 369.472 263.443 368.929C267.848 366.848 271.954 367.099 276.769 367.121Z" fill="#FAFCFC"/>
<path d="M470.738 368.084C477.194 373.659 477.194 373.659 477.688 377.846C477.936 384.708 477.165 389.384 472.414 394.526C467.566 398.134 462.256 398.382 456.414 397.526C451.428 395.033 447.918 391.532 445.414 386.526C444.888 381.243 444.772 376.857 447.102 372.026C453.153 365.484 462.919 362.841 470.738 368.084Z" fill="#F9FCFC"/>
<path d="M421.414 365.525C426.01 367.79 429.557 370.667 431.414 375.525C432.393 382.161 431.849 387.48 427.816 392.931C425.044 396.083 423.082 397.323 418.863 397.834C414.292 398.038 411.153 397.875 406.977 395.9C402.392 391.651 399.842 387.779 399.391 381.537C399.44 377.281 400.068 373.962 403.039 370.791C408.941 365.627 413.512 364.387 421.414 365.525Z" fill="#F8FCFC"/>
<path d="M181.414 246.525C181.414 249.525 181.414 249.525 180.164 250.998C179.587 251.523 179.009 252.047 178.414 252.588C173.933 256.858 170.199 261.64 166.414 266.525C165.754 266.195 165.094 265.865 164.414 265.525C169.498 258.556 175.208 252.507 181.414 246.525Z" fill="#6366f1"/>
<path d="M438.039 269.963C439.228 270.065 440.416 270.167 441.641 270.272C442.556 270.355 443.471 270.439 444.414 270.526C444.414 271.186 444.414 271.846 444.414 272.526C438.144 272.526 431.874 272.526 425.414 272.526C430.571 269.947 432.304 269.457 438.039 269.963Z" fill="#6366f1"/>
<path d="M294.414 460.525C294.414 463.525 294.414 463.525 292.008 466.225C290.984 467.228 289.952 468.224 288.914 469.213C288.389 469.724 287.865 470.235 287.324 470.762C286.027 472.023 284.722 473.275 283.414 474.525C282.754 474.195 282.094 473.865 281.414 473.525C285.747 469.192 290.081 464.859 294.414 460.525Z" fill="#6366f1"/>
<path d="M31.4141 43.5254C31.7441 44.1854 32.0741 44.8454 32.4141 45.5254C27.9591 51.4654 27.9591 51.4654 23.4141 57.5254C22.7541 57.1954 22.0941 56.8654 21.4141 56.5254C22.7035 54.7321 23.9957 52.9408 25.2891 51.1504C26.368 49.6538 26.368 49.6538 27.4688 48.127C29.4141 45.5254 29.4141 45.5254 31.4141 43.5254Z" fill="#6366f1"/>
<path d="M262.414 369.525C263.074 369.855 263.734 370.185 264.414 370.525C262.96 371.67 262.96 371.67 261.477 372.838C257.683 376.542 257.626 380.217 257.422 385.33C257.418 386.417 257.418 386.417 257.414 387.525C257.084 387.525 256.754 387.525 256.414 387.525C255.648 376.857 255.648 376.857 257.492 373.65C258.852 372.338 258.852 372.338 261.414 370.525C261.744 370.195 262.074 369.865 262.414 369.525Z" fill="#6366f1"/>
<path d="M595.414 456.525C595.744 457.515 596.074 458.505 596.414 459.525C594.98 461.568 594.98 461.568 592.977 463.713C592.318 464.428 591.659 465.144 590.98 465.881C590.464 466.424 589.947 466.966 589.414 467.525C588.754 467.195 588.094 466.865 587.414 466.525C590.054 463.225 592.694 459.925 595.414 456.525Z" fill="#6366f1"/>
<path d="M452.414 367.525C453.074 367.855 453.734 368.185 454.414 368.525C452.104 370.835 449.794 373.145 447.414 375.525C447.414 372.525 447.414 372.525 449.914 369.838C450.739 369.075 451.564 368.312 452.414 367.525Z" fill="#6366f1"/>
</svg>
